<svg width="40" height="60" viewBox="0 0 40 60" fill="none" xmlns="http://www.w3.org/2000/svg">
<path d="M40 20C40 31.0457 21 46 20.625 60C20 46 0 31.0457 0 20C0 8.9543 8.9543 0 20 0C31.0457 0 40 8.9543 40 20Z" fill="url(#paint0_linear)"/>
<path d="M40 20C40 31.0457 21 46 20.625 60C20 46 0 31.0457 0 20C0 8.9543 8.9543 0 20 0C31.0457 0 40 8.9543 40 20Z" fill="url(#paint1_linear)"/>
<path d="M11.9147 23C9.67216 23 7.63922 22.5129 5.81587 21.5387C4.01347 20.5433 2.58832 19.1773 1.54042 17.4406C0.513473 15.6828 0 13.7026 0 11.5C0 9.29742 0.513473 7.32781 1.54042 5.59116C2.58832 3.83333 4.01347 2.46731 5.81587 1.49309C7.63922 0.497698 9.68263 0 11.9461 0C13.8533 0 15.5719 0.338858 17.1018 1.01657C18.6527 1.69429 19.9521 2.66851 21 3.93923L17.7305 6.98895C16.2425 5.2523 14.3982 4.38398 12.1976 4.38398C10.8353 4.38398 9.61976 4.69107 8.5509 5.30525C7.48204 5.89825 6.64371 6.73481 6.03593 7.81492C5.4491 8.89503 5.15569 10.1234 5.15569 11.5C5.15569 12.8766 5.4491 14.105 6.03593 15.1851C6.64371 16.2652 7.48204 17.1123 8.5509 17.7265C9.61976 18.3195 10.8353 18.616 12.1976 18.616C14.3982 18.616 16.2425 17.7371 17.7305 15.9793L21 19.029C19.9521 20.3209 18.6527 21.3057 17.1018 21.9834C15.5509 22.6611 13.8219 23 11.9147 23Z" transform="translate(8 8)" fill="white" fill-opacity="0.8"/>
<defs>
<linearGradient id="paint0_linear" x2="1" gradientUnits="userSpaceOnUse" gradientTransform="matrix(5.08227e-07 60 -1.06474 0.294627 21.0324 -0.147314)">
<stop stop-color="#FB5012"/>
<stop offset="1" stop-color="#DC3C3C"/>
</linearGradient>
<linearGradient id="paint1_linear" x2="1" gradientUnits="userSpaceOnUse" gradientTransform="matrix(33.8416 26.5416 -0.30482 0.730875 3.67147 10.975)">
<stop stop-color="#FB5012"/>
<stop offset="1" stop-color="#DC3C3C"/>
</linearGradient>
</defs>
</svg>
